PathFileType	4	(X/Y/Z)	/Users/itak/Documents/Research/Walk-IL/dataset/trc/00545_00009.trc
DataRate	CameraRate	NumFrames	NumMarkers	Units	OrigDataRate	OrigDataStartFrame	OrigNumFrames
100.000000	100.000000	4	54	mm	100.000000	513	587
Frame#	Time	RPSI			LPSI			L3			STRN			T10			C7			CLAV			RBAK			LBAK			LSHO			LUPA			LAEL			LAOL			LWTS			LWPS			LFRA			LHPS			LHTS			RSHO			RUPA			RAEL			RAOL			RWTS			RWPS			RFRA			RIFD			RHTS			RHPS			RBHD			LFHD			RFHD			LBHD			LHIP			RHIP			RASI			LASI			LKNE			LTHI			LANK			LTIP			LTOE			LMT1			LMT5			LHEE			RKNE			RTHI			RANK			RTIP			RTOE			RMT1			RMT5			RHEE			LIFD			*53			
		X1	Y1	Z1	X2	Y2	Z2	X3	Y3	Z3	X4	Y4	Z4	X5	Y5	Z5	X6	Y6	Z6	X7	Y7	Z7	X8	Y8	Z8	X9	Y9	Z9	X10	Y10	Z10	X11	Y11	Z11	X12	Y12	Z12	X13	Y13	Z13	X14	Y14	Z14	X15	Y15	Z15	X16	Y16	Z16	X17	Y17	Z17	X18	Y18	Z18	X19	Y19	Z19	X20	Y20	Z20	X21	Y21	Z21	X22	Y22	Z22	X23	Y23	Z23	X24	Y24	Z24	X25	Y25	Z25	X26	Y26	Z26	X27	Y27	Z27	X28	Y28	Z28	X29	Y29	Z29	X30	Y30	Z30	X31	Y31	Z31	X32	Y32	Z32	X33	Y33	Z33	X34	Y34	Z34	X35	Y35	Z35	X36	Y36	Z36	X37	Y37	Z37	X38	Y38	Z38	X39	Y39	Z39	X40	Y40	Z40	X41	Y41	Z41	X42	Y42	Z42	X43	Y43	Z43	X44	Y44	Z44	X45	Y45	Z45	X46	Y46	Z46	X47	Y47	Z47	X48	Y48	Z48	X49	Y49	Z49	X50	Y50	Z50	X51	Y51	Z51	X52	Y52	Z52	X53	Y53	Z53	X54	Y54	Z54	

514	5.13	1341.507446289062	1010.305419921875	441.8395690917969	1356.85986328125	1012.867126464844	307.945556640625	1346.08203125	1102.822387695312	369.9593811035156	1566.66162109375	1302.91455078125	382.0216064453125	1329.302368164062	1227.316040039062	366.4245300292969	1361.780883789062	1502.826171875	381.2397155761719	1541.190307617188	1412.820922851562	381.5964660644531	1292.034912109375	1375.00439453125	462.0150756835938	1336.785278320312	1449.061157226562	287.1203002929688	1438.806274414062	1477.6259765625	213.027587890625	1437.859497070312	1351.861450195312	131.6201629638672	1458.199951171875	1128.4091796875	111.3255844116211	1367.185180664062	1123.59326171875	155.4026184082031	1534.23974609375	879.0076293945312	164.4732360839844	1496.665405273438	859.9302368164062	87.94345855712891	1478.666259765625	1040.87158203125	105.2550277709961	1500.61767578125	799.685546875	95.73946380615234	1547.38232421875	801.0824584960938	145.2511138916016	1413.405029296875	1468.48779296875	540.3599853515625	1392.603393554688	1403.847045898438	606.6870727539062	1391.684204101562	1113.328247070312	651.256103515625	1338.913452148438	1096.451538085938	619.0869140625	1524.9296875	891.061767578125	629.1055908203125	1473.738891601562	872.9708251953125	690.703125	1400.265380859375	1058.21484375	660.43408203125	1535.7666015625	717.4720458984375	638.8255615234375	1550.660522460938	800.2384643554688	648.4028930664062	1490.306396484375	798.3876342773438	692.2213745117188	1446.316284179688	1690.849487304688	455.4167785644531	1604.373779296875	1706.0673828125	320.24462890625	1585.91357421875	1703.952026367188	463.8526916503906	1473.954467773438	1690.959716796875	292.7257080078125	1495.929321289062	939.7581787109375	189.7032775878906	1467.787719726562	944.3966064453125	572.1947631835938	1547.836303710938	979.712646484375	524.377685546875	1569.62158203125	967.6095581054688	248.9084777832031	1497.405639648438	496.3808898925781	261.1257019042969	1511.127563476562	660.6830444335938	222.7603302001953	1386.071533203125	30.6722412109375	268.2369079589844	1418.914672851562	253.0940704345703	253.66845703125	1585.66748046875	40.97329330444336	354.1568908691406	1508.963500976562	44.72134017944336	376.7127685546875	1509.662841796875	35.10895919799805	267.3628540039062	1312.055541992188	44.90189743041992	306.77001953125	1483.859130859375	501.877197265625	538.400146484375	1498.0224609375	793.193359375	577.5118408203125	1371.905151367188	40.09399032592773	518.1819458007812	1476.451293945312	357.7369384765625	526.6083374023438	1595.777099609375	41.58895111083984	507.7353820800781	1536.22607421875	42.69949722290039	458.402587890625	1500.690795898438	40.66485214233398	557.3185424804688	1324.378784179688	33.84598922729492	456.2357177734375	1520.928588867188	709.6392211914062	155.9711761474609	nan	nan	nan	
515	5.14	1342.677734375	1010.489562988281	442.7359313964844	1358.106567382812	1013.073059082031	309.0850830078125	1347.113891601562	1102.725341796875	371.0105590820312	1567.44140625	1302.872802734375	383.0848693847656	1330.264282226562	1227.202514648438	367.345703125	1362.438354492188	1502.7216796875	382.2049560546875	1541.916748046875	1412.763427734375	382.536865234375	1292.72607421875	1374.983032226562	463.0162963867188	1337.493896484375	1448.906372070312	288.1654663085938	1439.44384765625	1477.45947265625	213.9427795410156	1437.8330078125	1351.681518554688	132.6076202392578	1456.399047851562	1128.084594726562	112.4853973388672	1365.669677734375	1123.9853515625	156.9656372070312	1530.366943359375	877.8320922851562	165.1845855712891	1492.259521484375	859.2258911132812	88.72539520263672	1476.071166992188	1040.34765625	106.2712020874023	1495.546264648438	798.9144897460938	96.52158355712891	1542.523681640625	799.7686157226562	145.8035125732422	1414.028564453125	1468.512939453125	541.357666015625	1393.261840820312	1403.928466796875	607.68896484375	1392.238403320312	1113.415893554688	652.4804077148438	1339.477294921875	1096.55126953125	620.3200073242188	1525.315063476562	891.0016479492188	630.553466796875	1474.080932617188	873.0289306640625	692.1697998046875	1400.773559570312	1058.325927734375	661.7347412109375	1535.932983398438	717.4475708007812	640.4378662109375	1550.940795898438	800.1340942382812	649.9671020507812	1490.552978515625	798.4641723632812	693.8331298828125	1446.833984375	1690.759033203125	456.2562255859375	1604.904296875	1706.0751953125	321.046630859375	1586.450927734375	1703.961303710938	464.6455078125	1474.483276367188	1690.836547851562	293.5823364257812	1497.12353515625	939.65869140625	191.1593475341797	1469.68798828125	944.2759399414062	572.9307861328125	1548.457153320312	979.58056640625	525.8783569335938	1570.8427734375	967.4754638671875	250.3409729003906	1497.610229492188	496.3573608398438	261.888671875	1511.78076171875	660.621826171875	223.5170593261719	1386.039184570312	30.69530296325684	268.2557067871094	1418.881225585938	253.1926879882812	254.0506439208984	1585.65576171875	41.02272415161133	354.1289672851562	1508.910766601562	44.68827056884766	376.7651672363281	1509.637573242188	35.14639282226562	267.39697265625	1312.00732421875	44.85585784912109	306.8533935546875	1481.599975585938	501.8765869140625	538.9946899414062	1498.969116210938	792.9302368164062	578.0671997070312	1371.766723632812	39.98459243774414	518.242919921875	1474.5	357.9369201660156	527.0185546875	1595.731079101562	41.61496734619141	507.7548217773438	1536.193115234375	42.6851692199707	458.4159545898438	1500.645874023438	40.64544296264648	557.3214111328125	1324.364624023438	33.61746597290039	456.1513366699219	1515.116577148438	708.6670532226562	156.5722503662109	nan	nan	nan	
516	5.15	1343.884399414062	1010.694641113281	443.5648803710938	1359.198608398438	1013.2685546875	310.165283203125	1348.240234375	1102.623291015625	372.0098266601562	1568.19091796875	1302.83642578125	384.146240234375	1331.215698242188	1227.094360351562	368.2227783203125	1363.060302734375	1502.623779296875	383.1685485839844	1542.614624023438	1412.720458984375	383.4732971191406	1293.37744140625	1374.960205078125	464.0059814453125	1338.182983398438	1448.775268554688	289.1793823242188	1440.06494140625	1477.308715820312	214.8547058105469	1437.830810546875	1351.542358398438	133.5766754150391	1454.677001953125	1127.80908203125	113.6559524536133	1364.230712890625	1124.385986328125	158.5619506835938	1526.68359375	876.7551879882812	165.9184112548828	1488.05029296875	858.604736328125	89.529296875	1473.580078125	1039.880249023438	107.3137893676758	1490.7109375	798.24267578125	97.31349182128906	1537.911010742188	798.5711669921875	146.373046875	1414.621459960938	1468.548706054688	542.336181640625	1393.8798828125	1404.000122070312	608.6655883789062	1392.801635742188	1113.507934570312	653.6663818359375	1340.07373046875	1096.656616210938	621.5095825195312	1525.773071289062	890.9846801757812	631.9598388671875	1474.490234375	873.0947875976562	693.57763671875	1401.285278320312	1058.424438476562	662.9989013671875	1536.214965820312	717.47265625	641.99609375	1551.32958984375	800.0887451171875	651.477783203125	1490.880615234375	798.55712890625	695.3854370117188	1447.335205078125	1690.68212890625	457.0888977050781	1605.410522460938	1706.076416015625	321.8515625	1586.97802734375	1703.978149414062	465.455078125	1474.989868164062	1690.721801757812	294.4296264648438	1498.274536132812	939.5735473632812	192.5774993896484	1471.542358398438	944.1683349609375	573.6708374023438	1549.043701171875	979.4800415039062	527.3486328125	1572.020629882812	967.3558349609375	251.7352600097656	1497.829223632812	496.3534851074219	262.6084899902344	1512.44287109375	660.5620727539062	224.2785186767578	1385.998901367188	30.68594551086426	268.2966918945312	1418.874145507812	253.3106079101562	254.3734436035156	1585.6298828125	41.05428314208984	354.1125183105469	1508.869750976562	44.66226577758789	376.8160095214844	1509.616821289062	35.17932510375977	267.4313049316406	1311.965698242188	44.82631301879883	306.9232788085938	1479.419677734375	501.9227905273438	539.5359497070312	1500.178588867188	792.6468505859375	578.449462890625	1371.6279296875	39.87332916259766	518.3274536132812	1472.59912109375	358.1607666015625	527.435546875	1595.67724609375	41.64572525024414	507.783447265625	1536.158569335938	42.69377899169922	458.4567565917969	1500.599487304688	40.61849594116211	557.3507080078125	1324.3232421875	33.438720703125	456.0879821777344	1509.594482421875	707.8053588867188	157.1880798339844	nan	nan	nan	
517	5.16	1345.052856445312	1010.913208007812	444.346923828125	1360.145263671875	1013.454162597656	311.1957702636719	1349.45556640625	1102.519165039062	372.9539184570312	1568.910766601562	1302.806396484375	385.2084350585938	1332.138305664062	1226.99267578125	369.0689086914062	1363.654418945312	1502.53857421875	384.1230163574219	1543.286254882812	1412.690673828125	384.4099426269531	1293.992553710938	1374.93115234375	464.9811706542969	1338.856567382812	1448.674682617188	290.1548767089844	1440.669189453125	1477.173706054688	215.7635498046875	1437.854248046875	1351.437744140625	134.5270538330078	1453.041870117188	1127.577026367188	114.8369445800781	1362.8837890625	1124.788940429688	160.1962738037109	1523.207275390625	875.7717895507812	166.6665649414062	1484.048095703125	858.0593872070312	90.35584259033203	1471.205078125	1039.464721679688	108.3828353881836	1486.123168945312	797.6619262695312	98.11429595947266	1533.55859375	797.4815063476562	146.9528350830078	1415.187377929688	1468.590087890625	543.2862548828125	1394.455688476562	1404.06201171875	609.6166381835938	1393.374755859375	1113.607055664062	654.8201293945312	1340.709228515625	1096.770263671875	622.662109375	1526.30029296875	891.0133056640625	633.3292846679688	1474.969482421875	873.17333984375	694.9302978515625	1401.806762695312	1058.511352539062	664.2268676757812	1536.616943359375	717.5419921875	643.5003051757812	1551.815551757812	800.1094970703125	652.9263916015625	1491.29443359375	798.6685180664062	696.8650512695312	1447.823120117188	1690.6201171875	457.9150390625	1605.890502929688	1706.072387695312	322.6593017578125	1587.495727539062	1704.0087890625	466.2824096679688	1475.473266601562	1690.617065429688	295.2653503417969	1499.379760742188	939.5013427734375	193.9557495117188	1473.34033203125	944.076416015625	574.3673706054688	1549.598266601562	979.4091796875	528.7769775390625	1573.152709960938	967.2490844726562	253.0891571044922	1498.059204101562	496.35498046875	263.3033447265625	1513.105590820312	660.4962768554688	225.061767578125	1385.949829101562	30.64483261108398	268.3629150390625	1418.889404296875	253.4391632080078	254.6477966308594	1585.588745117188	41.06193923950195	354.1123352050781	1508.842895507812	44.64512252807617	376.8627014160156	1509.599975585938	35.20943832397461	267.4662170410156	1311.932373046875	44.81943130493164	306.9737854003906	1477.345458984375	502.0039978027344	540.0206909179688	1501.426391601562	792.3604736328125	578.7578125	1371.492065429688	39.76078796386719	518.426513671875	1470.7763671875	358.3954162597656	527.8395385742188	1595.618041992188	41.68108367919922	507.8165588378906	1536.122680664062	42.7227897644043	458.5142211914062	1500.5537109375	40.58758163452148	557.3983154296875	1324.255737304688	33.29910278320312	456.0413208007812	1504.3740234375	707.0377807617188	157.8275146484375	nan	nan	nan	
